<mxfile host="Electron" modified="2024-07-12T13:07:33.505Z" agent="Mozilla/5.0 (Windows NT 10.0; Win64; x64) AppleWebKit/537.36 (KHTML, like Gecko) draw.io/24.6.4 Chrome/124.0.6367.207 Electron/30.0.6 Safari/537.36" etag="jMkdDfGo0mcHyCi2kYDv" version="24.6.4" type="device">
  <diagram name="第 1 页" id="vcJsN9X2RdP99NHRuY0J">
    <mxGraphModel dx="864" dy="516" grid="1" gridSize="10" guides="1" tooltips="1" connect="1" arrows="1" fold="1" page="1" pageScale="1" pageWidth="827" pageHeight="1169" math="0" shadow="0">
      <root>
        <mxCell id="0" />
        <mxCell id="1" parent="0" />
        <mxCell id="Fs0TjwBJbksPh68TmBvu-14" value="" style="rounded=1;whiteSpace=wrap;html=1;" vertex="1" parent="1">
          <mxGeometry x="50" y="700" width="350" height="280" as="geometry" />
        </mxCell>
        <mxCell id="Fs0TjwBJbksPh68TmBvu-10" value="" style="rounded=1;whiteSpace=wrap;html=1;" vertex="1" parent="1">
          <mxGeometry x="40" y="160" width="360" height="470" as="geometry" />
        </mxCell>
        <mxCell id="Fs0TjwBJbksPh68TmBvu-1" value="回合管理类" style="ellipse;whiteSpace=wrap;html=1;" vertex="1" parent="1">
          <mxGeometry x="110" y="20" width="120" height="80" as="geometry" />
        </mxCell>
        <mxCell id="Fs0TjwBJbksPh68TmBvu-2" value="&lt;div&gt;创建1个&lt;span style=&quot;background-color: initial;&quot;&gt;wait队列&lt;/span&gt;&lt;/div&gt;将所有玩家加入Observer wait队列" style="rounded=1;whiteSpace=wrap;html=1;fontSize=18;align=left;" vertex="1" parent="1">
          <mxGeometry x="60" y="180" width="220" height="100" as="geometry" />
        </mxCell>
        <mxCell id="Fs0TjwBJbksPh68TmBvu-3" value="若倒计时结束,或current_player的m_bMyTurn为false&lt;div&gt;&lt;span style=&quot;background-color: initial;&quot;&gt;将current_player加入wait队列结尾&lt;/span&gt;&lt;br&gt;&lt;/div&gt;&lt;div&gt;取队列头,作为cuurent_player,置m_bMyTurn为true&lt;/div&gt;&lt;div&gt;计时器归零&lt;/div&gt;" style="rounded=1;whiteSpace=wrap;html=1;fontSize=18;align=left;" vertex="1" parent="1">
          <mxGeometry x="70" y="810" width="310" height="140" as="geometry" />
        </mxCell>
        <mxCell id="Fs0TjwBJbksPh68TmBvu-4" value="将所有玩家的m_bMyTurn标志位置为false" style="rounded=1;whiteSpace=wrap;html=1;fontSize=18;align=left;" vertex="1" parent="1">
          <mxGeometry x="60" y="320" width="200" height="70" as="geometry" />
        </mxCell>
        <mxCell id="Fs0TjwBJbksPh68TmBvu-5" value="玩家类" style="ellipse;whiteSpace=wrap;html=1;" vertex="1" parent="1">
          <mxGeometry x="540" y="100" width="120" height="80" as="geometry" />
        </mxCell>
        <mxCell id="Fs0TjwBJbksPh68TmBvu-6" value="m_bMyTurn 标志位&lt;div&gt;初始为 false&lt;/div&gt;" style="rounded=1;whiteSpace=wrap;html=1;fontSize=18;align=left;" vertex="1" parent="1">
          <mxGeometry x="520" y="210" width="200" height="70" as="geometry" />
        </mxCell>
        <mxCell id="Fs0TjwBJbksPh68TmBvu-7" value="随机值对玩家数量取余&lt;div&gt;玩家在队列中的编号与结果相同的，作为current_player&lt;/div&gt;&lt;div&gt;m_bMyTurn置为true&lt;/div&gt;" style="rounded=1;whiteSpace=wrap;html=1;fontSize=18;align=left;" vertex="1" parent="1">
          <mxGeometry x="60" y="420" width="270" height="90" as="geometry" />
        </mxCell>
        <mxCell id="Fs0TjwBJbksPh68TmBvu-8" value="update函数中&lt;div&gt;若m_bMyTurn为true&lt;/div&gt;&lt;div&gt;则执行正常的回合内更新工作&lt;/div&gt;" style="rounded=1;whiteSpace=wrap;html=1;fontSize=18;align=left;" vertex="1" parent="1">
          <mxGeometry x="520" y="320" width="220" height="100" as="geometry" />
        </mxCell>
        <mxCell id="Fs0TjwBJbksPh68TmBvu-9" value="开始倒计时" style="rounded=1;whiteSpace=wrap;html=1;fontSize=18;align=left;" vertex="1" parent="1">
          <mxGeometry x="60" y="540" width="200" height="70" as="geometry" />
        </mxCell>
        <mxCell id="Fs0TjwBJbksPh68TmBvu-11" value="&lt;font style=&quot;font-size: 22px;&quot;&gt;初始化&lt;/font&gt;" style="text;html=1;align=center;verticalAlign=middle;resizable=0;points=[];autosize=1;strokeColor=none;fillColor=none;" vertex="1" parent="1">
          <mxGeometry x="115" y="120" width="90" height="40" as="geometry" />
        </mxCell>
        <mxCell id="Fs0TjwBJbksPh68TmBvu-12" value="更新" style="text;html=1;align=center;verticalAlign=middle;resizable=0;points=[];autosize=1;strokeColor=none;fillColor=none;" vertex="1" parent="1">
          <mxGeometry x="130" y="670" width="50" height="30" as="geometry" />
        </mxCell>
        <mxCell id="Fs0TjwBJbksPh68TmBvu-13" value="计时器加1" style="rounded=1;whiteSpace=wrap;html=1;fontSize=18;align=left;" vertex="1" parent="1">
          <mxGeometry x="70" y="720" width="200" height="70" as="geometry" />
        </mxCell>
      </root>
    </mxGraphModel>
  </diagram>
</mxfile>
